<svg width="50" height="50" viewBox="0 0 50 50" fill="none" xmlns="http://www.w3.org/2000/svg">
<path d="M23.5656 12.3376C21.6661 10.4291 19.0864 9.35301 16.3937 9.34598C13.701 9.33895 11.1157 10.4015 9.20627 12.3001C7.30771 14.2096 6.24514 16.7948 6.25217 19.4875C6.2592 22.1802 7.33526 24.7599 9.24377 26.6595L23.9531 41.372C24.2462 41.6649 24.6435 41.8294 25.0578 41.8294C25.4721 41.8294 25.8695 41.6649 26.1625 41.372L40.7969 26.747C42.6945 24.8376 43.7565 22.253 43.7494 19.5611C43.7424 16.8691 42.6669 14.2901 40.7594 12.3907C39.8185 11.4429 38.6999 10.69 37.4676 10.175C36.2354 9.66006 34.9136 9.39321 33.5781 9.38973C32.2426 9.38624 30.9195 9.6462 29.6845 10.1547C28.4496 10.6632 27.3271 11.4103 26.3813 12.3532L24.9844 13.7532L23.5656 12.3376Z" fill="#251A66"/>
</svg>
