<svg width="50" height="51" viewBox="0 0 50 51" fill="none" xmlns="http://www.w3.org/2000/svg">
<path d="M22.5417 10.6889C20.6047 9.12678 18.1679 8.35443 15.7041 8.52171C13.2403 8.68899 10.9253 9.78396 9.20836 11.5941C5.25003 15.7336 5.2667 22.4656 9.2417 26.6221L23.9584 42.0199C24.5667 42.6574 25.5584 42.6574 26.1667 42.0199L40.8042 26.7114C42.7019 24.687 43.7576 21.9918 43.7498 19.1909C43.742 16.39 42.6715 13.701 40.7625 11.6876C39.8338 10.6998 38.7193 9.913 37.4858 9.37438C36.2522 8.83575 34.9248 8.55631 33.583 8.55274C32.2412 8.54917 30.9124 8.82154 29.6761 9.3536C28.4398 9.88565 27.3213 10.6665 26.3875 11.6494L24.9875 13.1156L23.5709 11.6281C23.2463 11.2975 22.9041 10.9854 22.5459 10.6931M29.3709 14.6201C29.9164 14.0432 30.571 13.5851 31.2949 13.2734C32.0189 12.9617 32.7972 12.8028 33.583 12.8064C34.3688 12.81 35.1458 12.9759 35.867 13.2942C36.5882 13.6125 37.2387 14.0766 37.7792 14.6584C40.1834 17.1744 40.1834 21.2586 37.8167 23.7534L37.8125 23.7576L25.0625 37.0941L12.2292 23.6641C11.0744 22.4444 10.4262 20.8169 10.42 19.1213C10.4138 17.4257 11.05 15.7933 12.1959 14.5649C12.7406 13.9896 13.3939 13.5327 14.1164 13.2219C14.8389 12.911 15.6156 12.7526 16.3997 12.7562C17.1838 12.7598 17.9591 12.9253 18.6788 13.2427C19.3986 13.5601 20.0479 14.0229 20.5875 14.6031L22.0042 16.0864C22.3924 16.4931 22.8566 16.8164 23.3694 17.0371C23.8821 17.2579 24.4331 17.3716 24.9896 17.3716C25.5462 17.3716 26.0971 17.2579 26.6098 17.0371C27.1226 16.8164 27.5868 16.4931 27.975 16.0864L29.3709 14.6201Z" fill="#251A66"/>
</svg>
